<svg width="20" height="20" viewBox="0 0 20 20" fill="none" xmlns="http://www.w3.org/2000/svg">
<path fill-rule="evenodd" clip-rule="evenodd" d="M18.3469 14.3823C17.7345 14.9071 17.0007 15.2708 16.2122 15.4392C16.2094 16.3027 16.1233 17.1633 15.9537 18.0102C16.9877 16.9746 17.8021 15.7408 18.3469 14.3823ZM19.0066 15.33V17.9603C19.0094 18.2379 18.9001 18.5054 18.7046 18.7034C18.5091 18.9014 18.2432 19.0134 17.9643 19.0144H16.3262C17.464 17.9852 18.3784 16.734 19.0131 15.3374L19.0066 15.33ZM15.7165 14.4888C15.4413 14.4888 15.2181 14.7118 15.2181 14.9867C15.2181 16.3416 15.1087 18 14.5584 19.0143H2.03537C1.75648 19.0152 1.48963 18.9051 1.29322 18.7079C1.09587 18.5117 0.985602 18.2452 0.986528 17.9666V5.48869H19.0131V12.3944C17.7336 13.8066 16.6347 14.5045 15.7165 14.4888ZM5.1755 1.15105C5.043 1.01871 4.84381 0.979837 4.67147 1.05295C4.49913 1.12514 4.38795 1.29541 4.39073 1.48236V2.55126C4.39073 2.73635 4.50284 2.90386 4.67424 2.97513C4.84657 3.04547 5.04393 3.00659 5.1755 2.87518C5.26352 2.79004 5.31262 2.67343 5.31262 2.55127V1.48237C5.31262 1.36021 5.26352 1.24268 5.1755 1.15753V1.15105ZM15.4748 1.15105C15.3386 1.03074 15.1441 0.999274 14.9763 1.06961C14.8086 1.13994 14.6956 1.30097 14.6873 1.48236V2.55126C14.7039 2.7928 14.9059 2.97975 15.1477 2.97975C15.3905 2.97975 15.5925 2.79281 15.6092 2.55126V1.48236C15.6092 1.36021 15.561 1.2436 15.4739 1.15753L15.4748 1.15105ZM16.6043 2.50593H17.9653C18.5426 2.505 19.0105 2.96958 19.0133 3.54614V4.49381H0.986692V3.54614C0.989472 2.97235 1.45368 2.5087 2.02811 2.50593H3.38918C3.37343 2.90111 3.51982 3.28702 3.79407 3.57206C4.06926 3.85802 4.4482 4.01905 4.84476 4.01905C5.24132 4.01905 5.62025 3.85802 5.89452 3.57206C6.16971 3.28702 6.31608 2.90111 6.29941 2.50593H13.6931C13.6774 2.90111 13.8229 3.28702 14.098 3.57206C14.3723 3.85802 14.7522 4.01905 15.1478 4.01905C15.5444 4.01905 15.9242 3.85802 16.1985 3.57206C16.4737 3.28702 16.62 2.90111 16.6043 2.50593ZM15.1496 0.0230378C15.536 0.0239632 15.9066 0.177588 16.179 0.451526C16.4523 0.72545 16.6043 1.09658 16.6033 1.48249V1.52044H17.9644C19.0874 1.52322 19.9972 2.43203 20 3.55274V17.9668C19.9972 19.0884 19.0874 19.9972 17.9644 20H2.03558C0.912619 19.9972 0.00277514 19.0884 0 17.9668V3.54634C0.00277941 2.42468 0.912642 1.51589 2.03558 1.51312H3.39666C3.3809 1.11794 3.52637 0.732951 3.80154 0.446992C4.07578 0.161033 4.45567 0 4.85223 0C5.24787 0 5.62773 0.16103 5.90199 0.446992C6.17718 0.732951 6.32263 1.11794 6.30688 1.51312H13.6933C13.684 1.12166 13.8341 0.743138 14.1074 0.462723C14.3817 0.182308 14.7568 0.0239618 15.1496 0.0230378ZM12.9482 9.30071C12.1662 8.51962 11.1053 8.08097 9.9999 8.08097C8.89362 8.08097 7.83276 8.51964 7.05066 9.30071C6.26857 10.0818 5.82951 11.1405 5.82951 12.2456C5.82951 13.3506 6.26869 14.4093 7.05066 15.1905C7.83264 15.9716 8.89352 16.4111 9.9999 16.4111C11.1053 16.4111 12.1661 15.9715 12.9482 15.1905C13.7293 14.4094 14.1684 13.3497 14.1684 12.2456C14.1684 11.1415 13.7292 10.0819 12.9482 9.30071ZM9.9999 7.09073C8.6305 7.09073 7.31679 7.63398 6.34834 8.60107C5.37989 9.56817 4.83624 10.8805 4.83624 12.2484C4.83624 13.6162 5.38012 14.9277 6.34834 15.8948C7.31656 16.8628 8.63038 17.4061 9.9999 17.4061C11.3694 17.4061 12.683 16.8628 13.6515 15.8948C14.6197 14.9277 15.1636 13.6163 15.1636 12.2484C15.1636 10.8806 14.6197 9.56841 13.6515 8.60107C12.6833 7.63374 11.3694 7.09073 9.9999 7.09073ZM11.0006 10.912L9.50607 12.5185L9.00389 11.9633C8.92143 11.8522 8.79542 11.7809 8.65738 11.7671C8.51932 11.7532 8.38219 11.7976 8.27934 11.8901C8.17557 11.9827 8.11627 12.1132 8.11442 12.252C8.11257 12.3908 8.17001 12.5231 8.271 12.6176L9.11322 13.5652C9.20217 13.6791 9.33744 13.7475 9.48198 13.7531C9.62652 13.7596 9.76643 13.7022 9.86465 13.5958L11.727 11.594C11.8243 11.4996 11.878 11.3691 11.8762 11.2331C11.8743 11.098 11.8169 10.9693 11.7177 10.8768C11.6186 10.7842 11.4852 10.737 11.3499 10.7454C11.2146 10.7537 11.0886 10.8176 11.0006 10.9212L11.0006 10.912Z" fill="#0B8FAC"/>
</svg>
