<svg width="48" height="49" viewBox="0 0 48 49" fill="none" xmlns="http://www.w3.org/2000/svg">
<path fill-rule="evenodd" clip-rule="evenodd" d="M21.069 17.7248C20.5975 18.31 20.415 19.1839 20.415 20.3451V21.8026C20.415 22.2168 20.0793 22.5526 19.665 22.5526C19.2508 22.5526 18.915 22.2168 18.915 21.8026V20.3451C18.915 19.0941 19.0969 17.7818 19.9008 16.7838C20.7329 15.7508 22.0873 15.2226 24.0375 15.2226C25.9878 15.2226 27.3422 15.7508 28.1743 16.7838C28.9782 17.7818 29.16 19.0941 29.16 20.3451V21.8026C29.16 22.2168 28.8243 22.5526 28.41 22.5526C27.9958 22.5526 27.66 22.2168 27.66 21.8026V20.3451C27.66 19.1839 27.4775 18.31 27.0061 17.7248C26.5629 17.1746 25.7311 16.7226 24.0375 16.7226C22.344 16.7226 21.5122 17.1746 21.069 17.7248Z" fill="#1A5B8C"/>
<path fill-rule="evenodd" clip-rule="evenodd" d="M18.0091 24.5617C17.701 24.8697 17.5 25.4835 17.5 26.9463V28.4038C17.5 29.8667 17.701 30.4805 18.0091 30.7885C18.3171 31.0966 18.9309 31.2976 20.3938 31.2976H27.6812C29.1441 31.2976 29.7579 31.0966 30.0659 30.7885C30.374 30.4805 30.575 29.8667 30.575 28.4038V26.9463C30.575 25.4835 30.374 24.8697 30.0659 24.5617C29.7579 24.2536 29.1441 24.0526 27.6812 24.0526H20.3938C18.9309 24.0526 18.3171 24.2536 18.0091 24.5617ZM16.9484 23.501C17.7335 22.7159 18.9416 22.5526 20.3938 22.5526H27.6812C29.1334 22.5526 30.3415 22.7159 31.1266 23.501C31.9116 24.2861 32.075 25.4942 32.075 26.9463V28.4038C32.075 29.856 31.9116 31.0641 31.1266 31.8492C30.3415 32.6342 29.1334 32.7976 27.6812 32.7976H20.3938C18.9416 32.7976 17.7335 32.6342 16.9484 31.8492C16.1634 31.0641 16 29.856 16 28.4038V26.9463C16 25.4942 16.1634 24.2861 16.9484 23.501Z" fill="#1A5B8C"/>
<path fill-rule="evenodd" clip-rule="evenodd" d="M25.9497 27.1975C25.9497 26.5936 26.3974 26.1041 26.9497 26.1041H26.9563C27.5085 26.1041 27.9563 26.5936 27.9563 27.1975C27.9563 27.8013 27.5085 28.2908 26.9563 28.2908H26.9497C26.3974 28.2908 25.9497 27.8013 25.9497 27.1975Z" fill="#1A5B8C"/>
<path fill-rule="evenodd" clip-rule="evenodd" d="M23.0342 27.1975C23.0342 26.5936 23.4819 26.1041 24.0342 26.1041H24.0407C24.593 26.1041 25.0407 26.5936 25.0407 27.1975C25.0407 27.8013 24.593 28.2908 24.0407 28.2908H24.0342C23.4819 28.2908 23.0342 27.8013 23.0342 27.1975Z" fill="#1A5B8C"/>
<path fill-rule="evenodd" clip-rule="evenodd" d="M20.1184 27.1975C20.1184 26.5936 20.5661 26.1041 21.1184 26.1041H21.125C21.6772 26.1041 22.125 26.5936 22.125 27.1975C22.125 27.8013 21.6772 28.2908 21.125 28.2908H21.1184C20.5661 28.2908 20.1184 27.8013 20.1184 27.1975Z" fill="#1A5B8C"/>
</svg>
