<svg width="67" height="67" viewBox="0 0 67 67" fill="none" xmlns="http://www.w3.org/2000/svg">
<rect width="67" height="67" rx="33.5" fill="#0B8FAC" fill-opacity="0.12"/>
<path d="M31.639 25.823H32.8022V30.2431C32.8022 30.6246 33.1185 30.941 33.5001 30.941C33.8816 30.941 34.198 30.6246 34.198 30.2431V25.823H35.3612C35.7427 25.823 36.0591 25.5066 36.0591 25.125C36.0591 24.7435 35.7427 24.4271 35.3612 24.4271H31.639C31.2574 24.4271 30.941 24.7435 30.941 25.125C30.941 25.5066 31.2574 25.823 31.639 25.823Z" fill="#0B8FAC"/>
<path d="M35.3612 41.1771H34.198V36.757C34.198 36.3755 33.8816 36.0591 33.5001 36.0591C33.1185 36.0591 32.8022 36.3755 32.8022 36.757V41.1771H31.639C31.2574 41.1771 30.941 41.4935 30.941 41.8751C30.941 42.2566 31.2574 42.573 31.639 42.573H35.3612C35.7427 42.573 36.0591 42.2566 36.0591 41.8751C36.0591 41.4935 35.7427 41.1771 35.3612 41.1771Z" fill="#0B8FAC"/>
<path d="M24.9668 31.5272C25.0785 31.5923 25.1994 31.6202 25.3111 31.6202C25.553 31.6202 25.7857 31.4993 25.916 31.2666L26.5022 30.2616L30.3361 32.4764C30.4385 32.5415 30.5594 32.5694 30.6804 32.5694C30.9223 32.5694 31.155 32.4484 31.2853 32.2158C31.4807 31.8901 31.3597 31.4621 31.034 31.2666L27.2001 29.0519L27.7771 28.0469C27.9725 27.7119 27.8515 27.2839 27.5258 27.0977C27.1908 26.9023 26.7628 27.014 26.5767 27.349L24.7155 30.5687C24.5201 30.913 24.6318 31.3318 24.9668 31.5272Z" fill="#0B8FAC"/>
<path d="M42.0333 35.4728C41.6983 35.2774 41.2703 35.3891 41.0841 35.7241L40.4979 36.7291L36.664 34.5237C36.329 34.3283 35.901 34.4492 35.7148 34.7749C35.5194 35.1099 35.6404 35.538 35.9661 35.7241L39.7907 37.9388L39.2137 38.9438C39.0183 39.2788 39.1393 39.7069 39.465 39.893C39.5766 39.9581 39.6976 39.986 39.8093 39.986C40.0512 39.986 40.2839 39.8651 40.4141 39.6324L42.2753 36.4127C42.48 36.087 42.3683 35.6683 42.0333 35.4728Z" fill="#0B8FAC"/>
<path d="M39.7998 29.0519L35.9659 31.2666C35.6309 31.462 35.5193 31.8901 35.7147 32.2158C35.845 32.4391 36.0776 32.5694 36.3195 32.5694C36.4405 32.5694 36.5615 32.5415 36.6639 32.4763L40.4884 30.2616L41.0747 31.2666C41.205 31.4899 41.4376 31.6202 41.6795 31.6202C41.8005 31.6202 41.9215 31.5923 42.0239 31.5272C42.3589 31.3317 42.4705 30.9037 42.2751 30.578L40.414 27.3583C40.2186 27.0233 39.7905 26.9116 39.4648 27.107C39.1298 27.3024 39.0182 27.7305 39.2136 28.0562L39.7998 29.0519Z" fill="#0B8FAC"/>
<path d="M27.2001 37.9481L31.0247 35.7333C31.3597 35.5379 31.4714 35.1099 31.276 34.7842C31.0805 34.4492 30.6525 34.3375 30.3268 34.5329L26.5022 36.7476L25.916 35.7426C25.7205 35.4076 25.2925 35.296 24.9668 35.4914C24.6318 35.6868 24.5201 36.1149 24.7155 36.4406L26.5767 39.6603C26.7069 39.8836 26.9396 40.0139 27.1815 40.0139C27.3025 40.0139 27.4235 39.986 27.5258 39.9208C27.8608 39.7254 27.9725 39.2974 27.7771 38.9717L27.2001 37.9481Z" fill="#0B8FAC"/>
<path d="M36.7571 33.5C36.7571 34.0955 36.5989 34.6446 36.3197 35.1285C35.7521 36.1055 34.7005 36.7569 33.5001 36.7569C32.2997 36.7569 31.2482 36.1055 30.6805 35.1285C30.4014 34.6446 30.2432 34.0955 30.2432 33.5C30.2432 32.9044 30.4014 32.3554 30.6805 31.8715C31.2482 30.8944 32.2997 30.243 33.5001 30.243C34.7005 30.243 35.7521 30.8944 36.3197 31.8715C36.5989 32.3554 36.7571 32.9044 36.7571 33.5Z" fill="#0B8FAC"/>
</svg>
